<?xml version="1.0" encoding="utf-8"?>
<!-- Generator: Adobe Illustrator 22.0.1, SVG Export Plug-In . SVG Version: 6.00 Build 0)  -->
<svg version="1.1" id="Ebene_1" xmlns="http://www.w3.org/2000/svg" xmlns:xlink="http://www.w3.org/1999/xlink" x="0px" y="0px"
	 viewBox="0 0 960 600" style="enable-background:new 0 0 960 600;" xml:space="preserve">
<style type="text/css">
	.st0{fill:#9C9EDE;}
	.st1{font-family:'Roboto-Regular';}
	.st2{font-size:89.3793px;}
	.st3{fill:#637939;}
	.st4{fill:#8CA252;}
	.st5{font-size:60.6897px;}
	.st6{fill:#B5CF6B;}
	.st7{fill:#CEDB9C;}
	.st8{fill:#8C6D31;}
	.st9{fill:#BD9E39;}
	.st10{fill:#E7BA52;}
	.st11{fill:#E7CB94;}
	.st12{fill:#843C39;}
	.st13{fill:#AD494A;}
	.st14{fill:#D6616B;}
	.st15{fill:#E7969C;}
	.st16{fill:#7B4173;}
	.st17{fill:#A55194;}
	.st18{fill:#CE6DBD;}
	.st19{fill:#DE9ED6;}
	.st20{fill:#393B79;}
	.st21{fill:#5254A3;}
	.st22{fill:#6B6ECF;}
	.st23{font-size:110.3448px;}
</style>
<g transform="translate(480,300)scale(1.1034482717514038,1.1034482717514038)">
	<text transform="matrix(0.9063 0 0 0.9063 46.8781 55.9061)" class="st0 st1 st2">travel</text>
	<text transform="matrix(0.9063 0 0 0.9063 -98.8543 -50.6562)" class="st3 st1 st2">eco</text>
	<text transform="matrix(0.9063 0 0 0.9063 162.437 -106.5623)" class="st4 st1 st5">protect</text>
	<text transform="matrix(0.9063 0 0 0.9063 -233.4639 -115.1566)" class="st6 st1 st2">journey</text>
	<text transform="matrix(0.9063 0 0 0.9063 -356.9046 -43.0938)" class="st7 st1 st5">adventure</text>
	<text transform="matrix(0.9063 0 0 0.9063 -283.2342 -9.0935)" class="st8 st1 st5">green</text>
	<text transform="matrix(0.9063 0 0 0.9063 12.3844 1.2815)" class="st9 st1 st5">visit</text>
	<text transform="matrix(0.9063 0 0 0.9063 -130.1549 154.906)" class="st10 st1 st5">future</text>
	<text transform="matrix(0.9063 0 0 0.9063 46.1873 -105.125)" class="st11 st1 st5">care</text>
	<text transform="matrix(0.9063 0 0 0.9063 54.3547 159.9063)" class="st12 st1 st5">mindful</text>
	<text transform="matrix(0.9063 0 0 0.9063 -284.1263 107.9062)" class="st13 st1 st5">Europa</text>
	<text transform="matrix(0.9063 0 0 0.9063 213.1675 102.9063)" class="st14 st1 st5">friendly</text>
	<text transform="matrix(0.9063 0 0 0.9063 36.3982 -54.406)" class="st15 st1 st5">achtsam</text>
	<text transform="matrix(0.9063 0 0 0.9063 126.8286 8.9063)" class="st16 st1 st5">öko</text>
	<text transform="matrix(0.9063 0 0 0.9063 -130.9244 3.9064)" class="st17 st1 st5">klima</text>
	<text transform="matrix(0.9063 0 0 0.9063 -218.4165 50.9062)" class="st18 st1 st2">reisen</text>
	<text transform="matrix(0.9063 0 0 0.9063 52.1143 -155.2502)" class="st19 st1 st5">peaceful</text>
	<text transform="matrix(0.9063 0 0 0.9063 -212.5387 163.9065)" class="st20 st1 st5">fair</text>
	<text transform="matrix(0.9063 0 0 0.9063 -297.2638 153.9063)" class="st21 st1 st5">trip</text>
	<text transform="matrix(0.9063 0 0 0.9063 -79.4938 188.9063)" class="st22 st1 st5">away</text>
	<text transform="matrix(0.9063 0 0 0.9063 -114.1973 114.9062)" class="st3 st1 st23">nature</text>
</g>
</svg>
