<?xml version="1.0" encoding="utf-8"?>
<!-- Generator: Adobe Illustrator 24.1.3, SVG Export Plug-In . SVG Version: 6.00 Build 0)  -->
<svg version="1.1" id="Layer_1" xmlns="http://www.w3.org/2000/svg" xmlns:xlink="http://www.w3.org/1999/xlink" x="0px" y="0px"
	 viewBox="0 0 1920 1080" style="enable-background:new 0 0 1920 1080;" xml:space="preserve">
<style type="text/css">
	.st0{fill:#549F47;}
	.st1{fill:#2D5826;}
</style>
<path class="st0" d="M849.61,618.65c31.24-21.72,41.16-121.21-223.77-274.75C625.84,343.9,751.86,686.61,849.61,618.65z"/>
<path class="st0" d="M1035.3,672.89c-21.7-26.22-6.34-114.34,258.86-183C1294.16,489.89,1103.21,754.95,1035.3,672.89z"/>
<path class="st0" d="M1068.16,546.91c-18.2-9.98-29.32-63.39,105.56-161.96C1173.73,384.95,1125.11,578.15,1068.16,546.91z"/>
<path class="st1" d="M908.67,550.72c1.13,8.86-1.39,61.81-36.48,138.93c-24.91,54.75-37.57,85.13-13.52,118.99
	c20,28.15,63.71,29.58,86.08,8.86c21.52-19.94,31.65-54.75,34.81-108.86c2.74-46.82,31.65-159.19,40.51-187.51
	c8.86-28.32,32.91-103.32-29.75-151.11s-127.85-42.72-145.57-32.6c-17.72,10.13-42.91,30.36-34.81,91.14
	c2.61,19.58,18.91,34.47,33.55,41.77C910.66,503.85,906.65,534.83,908.67,550.72z"/>
<ellipse class="st1" cx="829.99" cy="283.8" rx="32.46" ry="42.01"/>
<ellipse transform="matrix(0.0744 -0.9972 0.9972 0.0744 544.0766 1156.5043)" class="st1" cx="895.07" cy="285.15" rx="28.06" ry="21.69"/>
<ellipse transform="matrix(0.1651 -0.9863 0.9863 0.1651 493.5843 1180.704)" class="st1" cx="944.16" cy="298.82" rx="23.23" ry="17.95"/>
<ellipse transform="matrix(0.2563 -0.9666 0.9666 0.2563 420.9416 1189.5554)" class="st1" cx="983.5" cy="321.23" rx="20.11" ry="15.54"/>
<ellipse transform="matrix(0.1651 -0.9863 0.9863 0.1651 501.1629 1293.6388)" class="st1" cx="1014.65" cy="350.81" rx="17.41" ry="13.45"/>
</svg>
