<?xml version="1.0" encoding="utf-8"?>
<!-- Generator: Adobe Illustrator 22.0.1, SVG Export Plug-In . SVG Version: 6.00 Build 0)  -->
<svg version="1.1" id="Ebene_1" xmlns="http://www.w3.org/2000/svg" xmlns:xlink="http://www.w3.org/1999/xlink" x="0px" y="0px"
	 viewBox="0 0 1920 1080" style="enable-background:new 0 0 1920 1080;" xml:space="preserve">
<style type="text/css">
	.st0{clip-path:url(#SVGID_2_);fill:#549F47;}
	.st1{clip-path:url(#SVGID_2_);fill:#2D5826;}
</style>
<g>
	<defs>
		<rect id="SVGID_1_" width="1920" height="1080"/>
	</defs>
	<clipPath id="SVGID_2_">
		<use xlink:href="#SVGID_1_"  style="overflow:visible;"/>
	</clipPath>
	<path class="st0" d="M844.8,642.8c52.7-1.3,49.6-133.3-184.9-234.6c-3.9-1.7-8,1.9-6.9,6C717.4,649.3,819.1,698,844.8,642.8"/>
	<path class="st0" d="M1029.2,713.7c-72.7-40.3,56.3-121.4,229.3-143.1c5.3-0.7,8.9,5.3,5.8,9.7
		C1159.9,729.1,1041.2,794.7,1029.2,713.7"/>
	<path class="st0" d="M1063.1,556c-57.7-8.8-29.1-98.6,118.1-146.4c2.8-0.9,5.6,1.4,5.2,4.3C1168.8,545.2,1092.1,618.7,1063.1,556"
		/>
	<path class="st1" d="M908.7,550.7c1.1,8.9-1.4,61.8-36.5,138.9c-24.9,54.7-37.6,85.1-13.5,119c20,28.2,63.7,29.6,86.1,8.9
		c21.5-19.9,31.6-54.7,34.8-108.9c2.7-46.8,31.6-159.2,40.5-187.5c8.9-28.3,32.9-103.3-29.7-151.1c-62.7-47.8-127.9-42.7-145.6-32.6
		c-17.7,10.1-42.9,30.4-34.8,91.1c2.6,19.6,18.9,34.5,33.5,41.8C910.7,503.8,906.6,534.8,908.7,550.7"/>
	<path class="st1" d="M862.5,283.8c0,23.2-14.5,42-32.5,42c-17.9,0-32.5-18.8-32.5-42c0-23.2,14.5-42,32.5-42
		C847.9,241.8,862.5,260.6,862.5,283.8"/>
	<path class="st1" d="M916.7,286.8c-1.2,15.5-11.8,27.3-23.7,26.4c-11.9-0.9-20.7-14.1-19.5-29.6c1.2-15.5,11.8-27.3,23.7-26.4
		C909.1,258.1,917.8,271.3,916.7,286.8"/>
	<path class="st1" d="M961.9,301.8c-2.1,12.7-11.8,21.6-21.5,19.9c-9.8-1.6-16-13.2-13.9-25.9c2.1-12.7,11.8-21.6,21.5-19.9
		C957.8,277.5,964,289.1,961.9,301.8"/>
	<path class="st1" d="M998.5,325.2c-2.8,10.7-11.9,17.7-20.2,15.5c-8.3-2.2-12.7-12.7-9.9-23.4c2.8-10.7,11.9-17.7,20.2-15.5
		C997,304,1001.4,314.5,998.5,325.2"/>
	<path class="st1" d="M1027.9,353c-1.6,9.5-8.8,16.2-16.1,14.9c-7.3-1.2-12-9.9-10.4-19.4c1.6-9.5,8.8-16.2,16.1-14.9
		C1024.9,334.9,1029.5,343.6,1027.9,353"/>
</g>
</svg>
